<svg width="105" height="105" viewBox="0 0 105 105" fill="none" xmlns="http://www.w3.org/2000/svg">
<path d="M49.8615 8.88292C51.2675 8.83194 52.7331 8.77966 54.137 8.86971C54.4946 8.89266 54.8421 8.97903 55.1986 9.01085C55.919 9.07517 56.6135 9.24028 57.3108 9.41904C59.2113 9.90634 60.9173 10.6344 62.6042 11.6352C63.1466 11.957 63.7112 12.2768 64.216 12.6553C65.6228 13.7101 66.8316 14.9254 67.9648 16.2629L68.2437 16.598C71.3557 20.4514 72.6695 25.5029 72.3351 30.4028C72.2985 30.9387 72.187 31.4846 72.1151 32.0178L71.9446 33.3439C71.8766 33.7496 71.7604 34.1583 71.7243 34.5672C71.6116 35.8454 72.015 37.0657 72.4819 38.2315C72.6327 38.608 72.7538 38.9817 72.9443 39.3424C73.2537 39.9285 73.6392 40.4768 73.9856 41.0412C74.2135 41.4125 74.4066 41.8901 74.684 42.218L78.167 46.779C78.4957 46.4909 78.8607 46.3311 79.2346 46.117L81.2737 44.9557L84.237 43.2807C84.5223 43.1258 84.7783 42.9178 85.0861 42.8092L85.2357 42.7557C85.7932 42.3586 86.4043 42.0697 86.9933 41.7217L93.0544 38.2727L95.464 36.9088C96.2113 36.4852 96.8918 36.0631 97.7198 35.8101C97.8514 35.868 97.8618 35.8956 97.943 36.0168C97.9636 36.1612 97.9799 36.2829 97.8813 36.405C97.1264 37.3411 96.1091 38.0315 95.2665 38.8746L91.2684 42.7211L89.0485 44.9141L85.9039 47.7509L83.9261 49.7218C83.7312 49.9167 83.5386 50.1078 83.3237 50.2806C83.1137 50.4492 82.8635 50.6113 82.7096 50.8338C82.4763 51.1704 82.0665 51.3378 81.8824 51.7053C81.885 51.764 81.8737 51.8853 81.8926 51.936C81.9541 52.1018 82.1774 52.2864 82.2991 52.4176C82.4642 52.596 82.6054 52.7999 82.7729 52.9717L83.7698 53.8968C84.0379 54.1651 84.2713 54.4701 84.5468 54.7303C84.7804 54.9506 85.0849 55.1357 85.2946 55.3759C85.5277 55.6429 85.7999 55.8375 86.053 56.0871C87.3703 57.3848 88.7886 58.5823 90.2416 59.7286C90.7677 60.1437 91.3559 60.5074 91.8513 60.9566C92.1586 61.235 92.3737 61.5595 92.3858 61.9848C92.3891 62.0998 92.4228 62.4642 92.3813 62.5551C92.284 62.7677 91.8707 63.1357 91.6763 63.2646C91.3468 63.483 90.9608 63.4871 90.5953 63.6069C90.4074 63.6684 90.2345 63.7713 90.0509 63.8444C89.7991 63.945 89.541 64.0069 89.286 64.0948C88.8657 64.2397 88.4451 64.4579 88.0392 64.6406C87.5677 64.8529 87.0812 65.0483 86.6241 65.2903C85.73 65.7635 84.8611 66.3405 84.0132 66.8932C83.6225 67.148 83.0873 67.4426 82.7655 67.7798C82.5406 68.0154 82.2548 68.2113 82.0048 68.4215L81.0918 69.2559C80.7036 69.5907 80.2759 69.9095 79.9322 70.2903L78.0025 72.6114C77.8053 72.8672 77.583 73.1077 77.4014 73.3748L76.5072 74.7116C76.3891 74.8788 76.2583 75.1113 76.0903 75.2271C75.9653 75.3132 75.3937 75.5245 75.2352 75.4865C75.1168 75.4581 75.0041 75.4184 74.8922 75.3705C74.7485 75.309 74.5977 75.245 74.4674 75.1582C74.4013 75.1141 74.2387 75.0128 74.2033 74.9531C74.0722 74.7316 74.0204 74.311 74.0141 74.0588C73.99 73.0728 73.9588 72.0518 73.7441 71.0852C73.6886 70.8358 73.5854 70.5971 73.5352 70.3471C73.4808 70.0763 73.4694 69.7984 73.4015 69.5295C73.1977 68.723 72.9157 67.9224 72.6173 67.1475C72.3226 66.3826 72.0593 65.5563 71.6756 64.8303L70.5012 62.7236L69.6033 61.328C69.253 61.5556 68.9469 61.8384 68.6243 62.1021L66.5403 63.8551L61.4474 68.2654C61.1374 68.5499 60.7741 68.7745 60.4739 69.0729C60.2386 69.3066 60.048 69.5824 59.8578 69.8526C60.9767 70.2808 61.9762 71.0025 63.0259 71.5744L71.3402 76.085L76.5589 78.7397L78.8471 79.928L82.7432 81.8094C83.3657 82.1128 84.0989 82.3805 84.6752 82.7521L84.7486 82.8051C84.9732 82.9651 85.1203 83.1579 85.2874 83.3733C85.3072 83.5259 85.322 83.6775 85.3243 83.8315C85.3261 83.9506 85.3659 84.314 85.3239 84.4098C85.3038 84.4556 85.1743 84.569 85.1399 84.6054C84.5466 85.2305 83.8308 85.7555 83.2108 86.3615C82.4215 87.1329 81.5892 87.9111 80.8669 88.7435C80.4752 89.1949 80.1656 89.68 79.8124 90.1574C79.5537 90.5072 79.263 90.8345 79.0152 91.1922C78.549 91.8655 78.1628 92.6077 77.7764 93.3291C77.5674 93.7196 77.3234 94.1041 77.1351 94.5038C76.889 95.0261 76.5988 95.6146 76.4062 96.1574C75.985 97.344 75.7061 98.6153 75.0817 99.7111C74.917 99.7976 74.77 99.8711 74.5847 99.9014C74.411 99.9298 74.2505 99.9733 74.0822 100.024C73.7375 99.9251 73.445 99.8563 73.1853 99.5918C72.8017 99.2014 72.4819 98.7561 72.1253 98.3432L71.211 97.3591L69.6214 95.485L68.6852 94.5446L67.8971 93.607L65.2281 90.7597L63.9871 89.3629L58.5791 83.9423C58.2385 83.6002 57.9811 83.1917 57.6494 82.8443C57.3045 82.4831 56.8976 82.1758 56.5365 81.8301C56.1669 81.4766 55.8616 81.0611 55.498 80.7015C55.1325 80.3399 54.7179 80.0504 54.3411 79.706L53.4402 78.7984L52.2422 77.6094C52.141 77.5141 51.9771 77.3191 51.8498 77.2657C51.4659 77.1053 51.0044 77.73 50.7658 77.9673L47.9174 80.8054C47.543 81.1617 47.1128 81.4487 46.7456 81.814L43.5379 85.0649C43.3011 85.312 43.1136 85.6006 42.8723 85.8508L40.9062 87.8194L39.1228 89.7611L35.6527 93.4229C35.4476 93.6493 35.2757 93.904 35.0731 94.1325L34.3688 94.8673L32.0604 97.4897C31.5415 98.07 30.9836 98.9102 30.3085 99.3042C30.0296 99.4672 29.5593 99.4837 29.253 99.3843C28.5198 99.1467 28.4479 98.4743 28.2323 97.8554C27.8419 96.7354 27.4614 95.5936 26.9594 94.5169C26.8188 94.2155 26.6306 93.94 26.4755 93.6464C26.2705 93.2579 26.0913 92.8515 25.8675 92.4735C24.9927 90.9958 23.9226 89.6326 22.7974 88.3414C22.4494 87.9419 22.1359 87.528 21.7592 87.1523C21.1573 86.5522 20.4871 86.0148 19.8456 85.4562C19.3972 85.0659 18.8801 84.7649 18.6119 84.1954C18.478 83.9111 18.4867 83.4552 18.6022 83.1621C18.8025 82.6537 19.2502 82.4731 19.7203 82.2911C20.2833 82.0733 20.7878 81.7399 21.3284 81.4757L25.2497 79.5638L28.5111 77.891L29.8872 77.2355L31.0189 76.5972L35.2642 74.3861L38.5619 72.5668L41.4625 70.9339C42.124 70.5477 42.7912 70.1016 43.4987 69.8084L43.1651 69.3999C42.9264 69.1264 42.6482 68.9358 42.3743 68.7028L41.1431 67.6402L40.3789 66.9324L36.4133 63.5595L35.0829 62.4246C34.9609 62.3126 34.6216 61.8911 34.4928 61.8475C34.4316 61.8268 34.3638 61.8388 34.2994 61.8343C33.9573 62.033 33.6799 62.6515 33.4831 62.9916C32.2263 65.1648 31.2365 67.4715 30.6698 69.9162C30.5932 70.2468 30.4797 70.5715 30.4198 70.9055C30.3458 71.319 30.3765 71.7477 30.3433 72.1654C30.3046 72.6541 30.1984 73.1186 30.2055 73.6132C30.2103 73.9426 30.3381 74.3193 30.3136 74.6309C30.2913 74.9173 30.1566 75.309 30.0012 75.5505C29.7601 75.925 29.459 76.049 29.0477 76.1503C28.622 76.0664 28.2679 75.9728 27.9708 75.6387C27.5854 75.2054 27.3339 74.6712 27.0197 74.1887C26.5497 73.4672 26.0316 72.7729 25.4999 72.0958C24.2661 70.5252 22.8135 69.1017 21.2595 67.8513C21.0283 67.6653 20.7729 67.5204 20.5376 67.3426C20.2126 67.097 19.9101 66.8271 19.5703 66.6007C19.2527 66.389 18.8985 66.2388 18.5735 66.0383C18.2509 65.8391 17.9459 65.6001 17.6112 65.4225C16.3828 64.7711 15.0409 64.176 13.7169 63.7537C13.2273 63.5975 12.5139 63.459 12.1936 63.0292L12.1438 62.959C12.101 62.9014 12.0581 62.8519 12.0314 62.7838C11.9431 62.559 11.8951 61.8101 12.0072 61.5978C12.1074 61.4078 12.3066 61.1742 12.4756 61.0432C14.4573 59.5083 16.4224 57.9863 18.2599 56.2752L20.8651 53.6717L21.8006 52.7487C21.939 52.6139 22.1436 52.4741 22.184 52.2807C22.2455 51.9865 21.9983 51.7922 21.8153 51.605L20.2259 50.0386C19.9303 49.7669 19.593 49.5434 19.3031 49.2655L17.4902 47.46C17.1934 47.1839 16.8559 46.9557 16.5603 46.6786L14.7751 44.9034L13.0794 43.3658L10.6662 40.9644L9.64744 40.099L7.9172 38.3872C7.16903 37.6866 6.28826 37.0978 5.76416 36.1984C5.82726 36.0572 5.88824 35.9233 5.97301 35.7932C6.24975 35.7761 6.79232 36.0706 7.04969 36.2012L8.69025 37.1321L13.1251 39.6308L14.3655 40.3789L15.5091 40.9646L17.3108 42.0098L19.0468 42.9268C19.4005 43.1256 19.7211 43.3817 20.0712 43.5871L22.3257 44.8527C23.6604 45.6063 25.0141 46.2809 26.291 47.1381C27.1308 46.1783 27.8627 45.0735 28.5608 44.0094L29.6562 42.3431C30.3471 41.1846 30.9705 39.9066 31.4753 38.6572C32.1039 37.1021 32.5421 35.5289 32.4966 33.8379C32.4843 33.3788 32.3843 32.9441 32.3505 32.4906L32.2829 30.7873C32.2594 30.4372 32.1862 30.0933 32.1674 29.7406C32.1027 28.5359 32.1572 27.3425 32.2852 26.1475C32.3163 25.8576 32.3155 25.5645 32.3606 25.2758C32.4984 24.3923 32.7424 23.4319 33.0256 22.5842C33.2126 22.0246 33.4805 21.4901 33.6493 20.9226L33.7099 20.7398C34.162 19.659 34.7787 18.6439 35.433 17.6784C37.3289 14.8809 39.7269 12.6214 42.7602 11.0844C43.6432 10.6369 44.5546 10.2662 45.4823 9.92217C45.7361 9.82805 46.005 9.77844 46.2566 9.67821C46.5527 9.56007 46.84 9.52322 47.1425 9.43482C47.3335 9.37898 47.5134 9.28682 47.7064 9.23637C48.3863 9.05856 49.1637 8.99409 49.8615 8.88292ZM46.4319 12.1765L46.3584 12.221C46.0006 12.4347 45.6298 12.5316 45.2492 12.6882C44.6089 12.9517 43.9498 13.2783 43.35 13.6259C41.0212 14.9756 38.8841 16.9731 37.4372 19.2486C37.0431 19.8685 36.7427 20.5113 36.4245 21.1701C36.0616 21.9215 35.7027 22.6332 35.4908 23.4475C35.0854 25.0033 34.7792 26.6597 34.7815 28.2732C34.7822 28.7487 34.8462 29.2386 34.8957 29.7119C35.0536 31.2196 35.349 32.5385 35.9059 33.9463C36.1729 34.6215 36.4005 35.2651 36.771 35.8972L37.7299 37.3749C37.9876 37.7652 38.2336 38.18 38.5245 38.5455C38.9146 39.0359 39.4032 39.4977 39.8525 39.9361C40.2271 40.3011 40.5969 40.6855 40.9977 41.0217C42.2154 42.0433 43.5458 42.8231 44.9839 43.4905C45.7718 43.8562 46.647 44.215 47.4885 44.4257C48.7006 44.7293 49.9066 44.8947 51.1509 44.9817C51.6311 45.0153 52.0905 45.116 52.5735 45.1155C53.1034 45.1151 53.6256 45.0197 54.1493 44.949C54.7138 44.8726 55.3228 44.8347 55.8762 44.7118C57.1426 44.4304 58.4292 43.9143 59.6221 43.409L60.9341 42.6974C61.7836 42.1701 62.658 41.6154 63.4216 40.9682C63.8001 40.6473 64.1474 40.2749 64.4967 39.922C64.8603 39.5545 65.2548 39.194 65.5867 38.7982C65.8591 38.4731 66.0842 38.1045 66.3311 37.76C67.4885 36.1461 68.4191 34.3265 68.8808 32.3809C69.1178 31.3815 69.3297 30.3527 69.4079 29.3262C69.6747 25.8274 68.7713 22.5405 66.9189 19.5787C66.494 18.8992 66.0538 18.2241 65.5444 17.6032C65.2821 17.2833 64.9703 17.0006 64.6826 16.7037C64.3246 16.3341 63.9755 15.9341 63.5886 15.5944C62.5471 14.6798 61.3454 13.9103 60.1166 13.2814C59.5884 13.0111 59.1023 12.723 58.5306 12.5494C58.2925 12.4771 58.1088 12.35 57.8577 12.3048L57.5677 12.2489C57.5701 13.3792 57.357 14.4543 56.685 15.3941C56.5072 15.6426 56.2489 15.875 56.033 16.0918C55.807 16.319 55.5737 16.5747 55.3213 16.7698C54.6905 17.2572 53.7501 17.6279 52.9592 17.7023C52.641 17.7324 52.2033 17.6863 51.9105 17.8041L51.835 17.7704C51.6398 17.6887 51.3769 17.7009 51.1671 17.6763C50.9128 17.6464 50.6613 17.5814 50.4121 17.524C50.1534 17.4645 49.914 17.333 49.6773 17.2166C48.6296 16.7007 47.9928 15.9739 47.4009 14.995C47.1712 14.6153 47.0127 14.1436 46.9056 13.7146L46.879 13.6149C46.761 13.166 46.8826 12.5211 46.5842 12.1715L46.4319 12.1765ZM69.5887 38.5803L68.2265 40.5108C66.9484 42.1559 65.2794 43.712 63.5504 44.8737C63.1461 45.1454 62.711 45.3582 62.291 45.6026C61.372 46.1377 60.2778 46.7083 59.2421 46.9714L59.0882 47.0152C59.0195 47.1754 59.0124 47.1995 59.037 47.3712C59.1737 47.5038 59.3414 47.5602 59.5053 47.6506L60.3999 48.1814L61.9276 49.211C62.8318 49.8586 63.7258 50.6 64.5576 51.3365C65.0603 51.7816 65.5185 52.2857 65.9956 52.7586C66.7987 53.5544 67.6398 54.3383 68.3761 55.1962C68.5827 55.4369 68.8952 55.7448 68.9503 56.0633C68.9305 56.1184 68.9241 56.1806 68.8908 56.2288C68.8488 56.2894 68.623 56.4088 68.5512 56.4595L66.6608 57.7369L65.0355 58.9416L63.9755 59.7755C63.7099 59.9721 63.4145 60.1266 63.1456 60.3191L60.709 62.148C60.4562 62.3369 60.2252 62.5549 59.9691 62.739L58.4643 63.7555L55.6596 65.7781L50.3032 68.9832L48.8584 69.8788L38.7553 75.557L34.4893 77.9159L30.544 79.9265L27.6243 81.4455C26.8829 81.8429 26.1691 82.271 25.4057 82.6304L24.9867 82.7999C24.58 82.9408 24.2107 83.1803 23.8294 83.3784C23.404 83.599 22.981 83.7743 22.5991 84.0697L23.9826 85.3985C24.3897 85.7486 24.6923 86.1976 25.0452 86.5966C27.2588 89.0994 29.1563 92.033 30.261 95.1994L40.4573 84.3061L47.1978 77.5697C47.5052 77.2733 47.8527 77.0331 48.1644 76.7443L50.6305 74.2957C50.9402 73.9969 51.2971 73.7607 51.6093 73.4677L52.9839 72.1335L55.4021 69.9997L57.2535 68.2695L60.447 65.7261L67.6396 60.29L68.8895 59.338L70.076 58.3848C70.2507 58.2512 70.3921 58.096 70.6123 58.0671C70.9629 58.3349 71.1414 58.7229 71.3995 59.0692C72.9456 61.1438 74.1531 63.4023 75.1578 65.7815C75.617 66.8688 76.1 68.0881 76.2672 69.2626L76.3646 70.0107C76.9208 69.5573 77.4045 69.0241 77.8863 68.4933C78.0391 68.3251 78.1659 68.126 78.3283 67.9685C78.9778 67.3385 79.7086 66.7549 80.3937 66.1633C81.247 65.4265 82.0873 64.7812 83.0356 64.1685C83.2216 64.0482 83.389 63.9022 83.5811 63.7906L84.7999 63.1035C84.964 63.0208 85.2063 62.9879 85.3318 62.8622C85.6849 62.5088 86.2629 62.3787 86.7039 62.1838C87.156 61.984 87.5788 61.7587 87.9809 61.4713C86.9741 60.772 86.1154 59.821 85.2642 58.9393L82.9988 56.3704L81.876 55.2172L79.923 52.9687L78.7442 51.6285C78.5685 51.4279 78.2973 51.2292 78.2387 50.9619C78.2491 50.9061 78.2451 50.8456 78.2697 50.7944C78.3639 50.5988 78.8274 50.3505 79.0084 50.2062L81.173 48.4189L82.3551 47.4792C82.5559 47.3187 82.7634 47.1955 82.9388 47.0052C83.0722 46.8605 83.2541 46.8213 83.3388 46.6292C83.2024 46.576 83.0919 46.6026 82.9542 46.6595C82.7262 46.754 82.4978 46.9749 82.2801 47.105L78.7416 49.1932C78.4117 49.3894 78.0937 49.652 77.7503 49.8192C77.6012 49.8919 77.5279 49.9026 77.3661 49.874C77.1622 49.6637 77.0074 49.4222 76.8173 49.2012L74.7007 46.505L73.4655 44.9024L71.4889 41.9201C71.2398 41.5096 70.9619 41.0968 70.7399 40.6722L70.1565 39.5123C70.0309 39.2444 69.9006 38.7394 69.6752 38.5593L69.5887 38.5803ZM34.6585 38.2727C34.2003 38.7263 34.0254 39.5825 33.747 40.1592L32.602 42.417L31.8202 43.7253C30.6322 45.7436 29.3265 47.64 27.9032 49.5008C27.6786 49.7943 27.1812 50.6865 26.8165 50.7312C26.2222 50.4353 25.6808 49.9915 25.1222 49.6307L21.8186 47.4777L21.1232 46.9928C20.9785 46.8833 20.716 46.6625 20.5422 46.6252C20.4914 46.6144 20.4382 46.6282 20.386 46.6297C20.3573 46.7314 20.3504 46.7596 20.4113 46.8571C20.559 47.0941 20.9502 47.3012 21.1681 47.4853L23.5841 49.5214C24.2609 50.0894 24.9563 50.5877 25.5799 51.2197C25.6903 51.3316 25.9443 51.5409 25.9834 51.6874L24.6006 53.109L23.4753 54.3864L21.6134 56.2462L20.7243 57.2568L18.3024 59.6838L16.8131 61.0308C16.6636 61.1622 16.4871 61.2746 16.3462 61.4137C16.2399 61.5185 16.227 61.6652 16.2145 61.8055C16.2616 61.887 16.2501 61.906 16.3433 61.9372C17.4168 62.2952 18.3828 62.8305 19.361 63.3862C20.4042 63.9788 21.4277 64.5898 22.3942 65.3044C23.4612 66.0932 24.4356 66.9821 25.3755 67.9152L26.8508 69.4029C27.0411 69.6109 27.183 69.8742 27.3787 70.0678C27.4916 70.1794 27.5145 70.2188 27.6711 70.2229C27.9224 69.8695 27.9554 69.2895 28.082 68.8713L28.7591 66.8524C29.0856 66.0151 29.4826 65.2094 29.8789 64.4036C30.4616 63.2182 31.0626 62.0642 31.7961 60.9597L32.7463 59.5232C32.9867 59.1511 33.1102 58.8064 33.4554 58.5012C34.2372 59.1851 35.1256 59.6981 35.95 60.3186L41.1644 64.3069L42.0003 64.9031C42.3045 65.1432 42.5622 65.4326 42.8619 65.6765L44.695 67.0893C45.1193 67.4423 45.673 68.113 46.1919 68.2891L47.1937 67.6279L48.3748 66.9521C48.5739 66.8382 48.7395 66.8322 48.866 66.6248L48.8857 66.4146C48.6906 66.1895 48.3349 66.0959 48.0831 65.9339L46.6539 64.9711L37.5985 58.6914L35.9753 57.5402C35.5656 57.2434 35.1833 56.9876 34.8714 56.5822L34.9402 56.5438C35.2744 56.352 35.4227 56.0967 35.6581 55.806C36.032 55.3442 36.4238 54.8604 36.8382 54.4359C38.3907 52.8465 39.9671 51.264 41.6733 49.8401C42.4713 49.1741 43.3704 48.5617 44.2522 48.0114L44.9687 47.5811C45.1639 47.4762 45.2945 47.4521 45.4366 47.2705L45.4692 47.091C45.2207 46.9037 44.8021 46.8185 44.5086 46.6937L42.6088 45.8182C42.1579 45.594 41.7417 45.3014 41.3138 45.0371C39.0462 43.6357 37.0062 41.6903 35.5133 39.4782L34.889 38.5206C34.875 38.4984 34.7576 38.2904 34.739 38.2823C34.7143 38.2715 34.6852 38.2759 34.6585 38.2727ZM51.7592 48.2646C50.3091 48.3945 48.8187 48.8179 47.4926 49.4158C47.1799 49.5569 46.8839 49.7416 46.577 49.8967C45.7778 50.3002 44.956 50.7391 44.2232 51.2559C43.1169 52.036 42.1123 52.9249 41.0912 53.8074C40.2166 54.5631 39.2678 55.3678 38.5312 56.2634L38.3204 56.5628L51.5955 64.9399L52.0327 64.7494C52.8401 64.3225 53.5714 63.8311 54.3476 63.3567L56.0741 62.3367L59.8317 59.9368C60.5799 59.4807 65.2095 56.6624 65.4727 56.2113C65.1894 55.7644 64.8184 55.4134 64.449 55.0385L62.8052 53.4998C62.043 52.8506 61.3193 52.194 60.5134 51.5942C59.4229 50.7823 58.2357 50.0881 57.0082 49.5065C56.253 49.1487 55.4555 48.813 54.6372 48.6283C53.6746 48.4111 52.7536 48.2052 51.7592 48.2646ZM59.0054 72.7077C57.2663 73.3576 55.9133 74.6665 55.0871 76.3339L64.087 85.3118C65.6519 86.7576 67.0341 88.3933 68.4511 89.9778L69.2435 90.8161C69.4927 91.0988 69.717 91.4066 69.9754 91.6804C70.2379 91.9585 70.5312 92.2131 70.7813 92.5022L71.2484 93.0938L72.0467 93.9576C72.4485 94.4344 72.844 94.9543 73.29 95.392C73.4005 95.5006 73.4947 95.5359 73.6488 95.5554C73.783 95.4022 73.7974 95.2104 73.8588 95.0227L74.1144 94.3537C74.3185 93.8608 74.5536 93.344 74.8052 92.8745L76.0214 90.639C76.9881 89.0274 78.1646 87.5749 79.3932 86.1625C79.9903 85.4761 80.6199 84.7348 81.3133 84.1442L81.2593 84.1273C80.8094 83.982 80.3745 83.769 79.9425 83.5777L76.1619 81.6818L66.3636 76.6223L64.0815 75.4766L61.0028 73.808L59.729 73.1061C59.489 72.9783 59.225 72.8684 59.0054 72.7077ZM51.2583 11.3464C50.8849 11.4237 50.5227 11.4669 50.1417 11.4853C49.9973 11.4923 49.6705 11.4584 49.5467 11.5053C49.377 11.5696 48.9485 11.9266 48.8753 12.0949C48.843 12.1692 48.8696 12.3219 48.8742 12.401C48.9094 12.9993 49.0315 13.4154 49.3652 13.9185C49.5816 14.2448 49.8792 14.5311 50.1995 14.7534L50.2849 14.8142C50.962 15.2918 52.0142 15.5004 52.8232 15.3519L53.0763 15.2887C54.1765 14.986 54.7699 14.5115 55.3295 13.5184C55.5715 13.0888 55.6416 12.5836 55.6578 12.0998C55.5069 11.9402 55.3387 11.7425 55.1405 11.6423C54.7228 11.4313 54.1567 11.459 53.6981 11.371C52.9449 11.2264 52.0281 11.3092 51.2583 11.3464Z" fill="#ffffff"/>
</svg>
